<mxfile host="app.diagrams.net" modified="2021-07-25T17:59:15.989Z" agent="5.0 (Windows)" etag="3hfzPiVN1Y0gBvY_uNCq" version="14.9.2" type="github">
  <diagram id="ggf2usPorNdX9x693DGo" name="Page-1">
    <mxGraphModel dx="2622" dy="724" grid="1" gridSize="10" guides="1" tooltips="1" connect="1" arrows="1" fold="1" page="0" pageScale="1" pageWidth="827" pageHeight="1169" math="0" shadow="0">
      <root>
        <mxCell id="0" />
        <mxCell id="1" parent="0" />
        <mxCell id="g03nTtScG-hAA8EhMata-2" value="Комната Никки, жилой сектор" style="swimlane;fontStyle=0;childLayout=stackLayout;horizontal=1;startSize=26;horizontalStack=0;resizeParent=1;resizeParentMax=0;resizeLast=0;collapsible=1;marginBottom=0;fillColor=#e1d5e7;strokeColor=#9673a6;" parent="1" vertex="1">
          <mxGeometry x="190" y="460" width="370" height="156" as="geometry">
            <mxRectangle x="190" y="350" width="200" height="26" as="alternateBounds" />
          </mxGeometry>
        </mxCell>
        <mxCell id="g03nTtScG-hAA8EhMata-3" value="Подождать еще" style="text;align=left;verticalAlign=top;spacingLeft=4;spacingRight=4;overflow=hidden;rotatable=0;points=[[0,0.5],[1,0.5]];portConstraint=eastwest;" parent="g03nTtScG-hAA8EhMata-2" vertex="1">
          <mxGeometry y="26" width="370" height="26" as="geometry" />
        </mxCell>
        <mxCell id="g03nTtScG-hAA8EhMata-4" value="Выйти в коридор" style="text;strokeColor=none;fillColor=none;align=left;verticalAlign=top;spacingLeft=4;spacingRight=4;overflow=hidden;rotatable=0;points=[[0,0.5],[1,0.5]];portConstraint=eastwest;" parent="g03nTtScG-hAA8EhMata-2" vertex="1">
          <mxGeometry y="52" width="370" height="26" as="geometry" />
        </mxCell>
        <mxCell id="g03nTtScG-hAA8EhMata-5" value="Позвать на помощь" style="text;strokeColor=none;fillColor=none;align=left;verticalAlign=top;spacingLeft=4;spacingRight=4;overflow=hidden;rotatable=0;points=[[0,0.5],[1,0.5]];portConstraint=eastwest;" parent="g03nTtScG-hAA8EhMata-2" vertex="1">
          <mxGeometry y="78" width="370" height="26" as="geometry" />
        </mxCell>
        <mxCell id="g03nTtScG-hAA8EhMata-23" value="Связаться со своим кораблем" style="text;align=left;verticalAlign=top;spacingLeft=4;spacingRight=4;overflow=hidden;rotatable=0;points=[[0,0.5],[1,0.5]];portConstraint=eastwest;" parent="g03nTtScG-hAA8EhMata-2" vertex="1">
          <mxGeometry y="104" width="370" height="26" as="geometry" />
        </mxCell>
        <mxCell id="g03nTtScG-hAA8EhMata-24" value="Сообщить грузополучателю о задержке" style="text;strokeColor=none;fillColor=none;align=left;verticalAlign=top;spacingLeft=4;spacingRight=4;overflow=hidden;rotatable=0;points=[[0,0.5],[1,0.5]];portConstraint=eastwest;" parent="g03nTtScG-hAA8EhMata-2" vertex="1">
          <mxGeometry y="130" width="370" height="26" as="geometry" />
        </mxCell>
        <mxCell id="4rcX--6uyM_ahGE6yn0v-4" style="edgeStyle=orthogonalEdgeStyle;rounded=0;orthogonalLoop=1;jettySize=auto;html=1;entryX=0.5;entryY=0;entryDx=0;entryDy=0;" edge="1" parent="1" source="g03nTtScG-hAA8EhMata-12" target="4rcX--6uyM_ahGE6yn0v-2">
          <mxGeometry relative="1" as="geometry" />
        </mxCell>
        <mxCell id="g03nTtScG-hAA8EhMata-12" value="&lt;div&gt;&lt;b&gt;Никка&lt;/b&gt;&lt;br&gt;&lt;/div&gt;&lt;div&gt;Прошло больше суток после объявления карантина на этой несчастной станции&lt;/div&gt;&lt;div&gt;&lt;br&gt;&lt;/div&gt;&lt;div&gt;&lt;div&gt;С завтрашнего дня придется платить неустойку за просроченную доставку груза из 3-го бокса&lt;/div&gt;&lt;/div&gt;&lt;div&gt;&lt;br&gt;&lt;/div&gt;&lt;div&gt;Наверняка система безопасности этой дряхлой станции дала сбой, а этим разгильдяям лень ковыряться в этом космическом мусоре&lt;/div&gt;" style="whiteSpace=wrap;html=1;fillColor=#dae8fc;strokeColor=#6c8ebf;" parent="1" vertex="1">
          <mxGeometry x="190" y="70" width="370" height="160" as="geometry" />
        </mxCell>
        <mxCell id="g03nTtScG-hAA8EhMata-25" style="edgeStyle=orthogonalEdgeStyle;orthogonalLoop=1;jettySize=auto;html=1;entryX=0.5;entryY=0;entryDx=0;entryDy=0;" parent="1" source="g03nTtScG-hAA8EhMata-13" target="g03nTtScG-hAA8EhMata-15" edge="1">
          <mxGeometry relative="1" as="geometry" />
        </mxCell>
        <mxCell id="g03nTtScG-hAA8EhMata-13" value="Ремонтно-заправочная станция &quot;Ликон-С1&quot;, звёздная система Ликон" style="whiteSpace=wrap;html=1;fillColor=#fff2cc;strokeColor=#d6b656;" parent="1" vertex="1">
          <mxGeometry x="-180" y="70" width="330" height="40" as="geometry" />
        </mxCell>
        <mxCell id="g03nTtScG-hAA8EhMata-26" style="edgeStyle=orthogonalEdgeStyle;orthogonalLoop=1;jettySize=auto;html=1;exitX=0.75;exitY=0;exitDx=0;exitDy=0;" parent="1" source="g03nTtScG-hAA8EhMata-15" target="g03nTtScG-hAA8EhMata-12" edge="1">
          <mxGeometry relative="1" as="geometry" />
        </mxCell>
        <mxCell id="g03nTtScG-hAA8EhMata-15" value="&lt;div&gt;Никка 1701 - курьер небольшой торговой компании &quot;Скоротечный Хвой&quot; КосмоФедерации Кано 3.&lt;/div&gt;&lt;div&gt;&lt;br&gt;&lt;/div&gt;&lt;div&gt;Прибыла на дозаправку, но застряла по причине карантина. Покинуть станцию в настоящий момент невозможно&lt;br&gt;&lt;/div&gt;" style="whiteSpace=wrap;html=1;fillColor=#d5e8d4;strokeColor=#82b366;" parent="1" vertex="1">
          <mxGeometry x="-180" y="180" width="330" height="100" as="geometry" />
        </mxCell>
        <mxCell id="4rcX--6uyM_ahGE6yn0v-5" style="edgeStyle=orthogonalEdgeStyle;rounded=0;orthogonalLoop=1;jettySize=auto;html=1;entryX=0.5;entryY=0;entryDx=0;entryDy=0;" edge="1" parent="1" source="4rcX--6uyM_ahGE6yn0v-2" target="g03nTtScG-hAA8EhMata-2">
          <mxGeometry relative="1" as="geometry" />
        </mxCell>
        <mxCell id="4rcX--6uyM_ahGE6yn0v-2" value="&lt;b&gt;Никка&lt;/b&gt;&lt;br&gt;&lt;div&gt;Думаю, надо делать ноги отсюда. Пока весь мой груз не протух. Иди потом доказывай, что был там-то, карантин и т.п.&lt;/div&gt;" style="rounded=0;whiteSpace=wrap;html=1;fillColor=#dae8fc;strokeColor=#6c8ebf;" vertex="1" parent="1">
          <mxGeometry x="190" y="260" width="370" height="60" as="geometry" />
        </mxCell>
        <mxCell id="4rcX--6uyM_ahGE6yn0v-9" style="edgeStyle=orthogonalEdgeStyle;rounded=0;orthogonalLoop=1;jettySize=auto;html=1;entryX=0.446;entryY=0.006;entryDx=0;entryDy=0;entryPerimeter=0;" edge="1" parent="1" source="4rcX--6uyM_ahGE6yn0v-6" target="g03nTtScG-hAA8EhMata-2">
          <mxGeometry relative="1" as="geometry" />
        </mxCell>
        <mxCell id="4rcX--6uyM_ahGE6yn0v-6" value="Зубы почистила, телек посмотрела, в носу поковыряла...&lt;br&gt;Осталось теперь только повторить всё это в обратном порядке" style="rounded=0;whiteSpace=wrap;html=1;fillColor=#dae8fc;strokeColor=#6c8ebf;" vertex="1" parent="1">
          <mxGeometry x="-270" y="320" width="330" height="90" as="geometry" />
        </mxCell>
        <mxCell id="4rcX--6uyM_ahGE6yn0v-16" style="edgeStyle=orthogonalEdgeStyle;rounded=0;orthogonalLoop=1;jettySize=auto;html=1;" edge="1" parent="1" source="4rcX--6uyM_ahGE6yn0v-11" target="4rcX--6uyM_ahGE6yn0v-12">
          <mxGeometry relative="1" as="geometry" />
        </mxCell>
        <mxCell id="4rcX--6uyM_ahGE6yn0v-11" value="Как только Никка открыла дверь, путь ей перегородил грустный охранник станции." style="rounded=0;whiteSpace=wrap;html=1;fillColor=#d5e8d4;strokeColor=#82b366;" vertex="1" parent="1">
          <mxGeometry x="-930" y="700" width="420" height="60" as="geometry" />
        </mxCell>
        <mxCell id="4rcX--6uyM_ahGE6yn0v-19" style="edgeStyle=orthogonalEdgeStyle;rounded=0;orthogonalLoop=1;jettySize=auto;html=1;entryX=0.5;entryY=0;entryDx=0;entryDy=0;" edge="1" parent="1" source="4rcX--6uyM_ahGE6yn0v-12" target="4rcX--6uyM_ahGE6yn0v-17">
          <mxGeometry relative="1" as="geometry" />
        </mxCell>
        <mxCell id="4rcX--6uyM_ahGE6yn0v-12" value="&lt;div&gt;&lt;b&gt;Грустный охранник&lt;/b&gt;&lt;/div&gt;&lt;div&gt;Уважаемая Никки. На борту карантин, красный уровень опасности для людей.&lt;/div&gt;&lt;div&gt;&lt;br&gt;&lt;/div&gt;&lt;div&gt;К моему великому сожалению вам запрещено покидать свою каюту.&lt;/div&gt;&lt;div&gt;Наш капитан заботится о вашей безопасности.&lt;br&gt;&lt;/div&gt;" style="rounded=0;whiteSpace=wrap;html=1;fillColor=#dae8fc;strokeColor=#6c8ebf;" vertex="1" parent="1">
          <mxGeometry x="-930" y="770" width="420" height="100" as="geometry" />
        </mxCell>
        <mxCell id="4rcX--6uyM_ahGE6yn0v-14" style="edgeStyle=orthogonalEdgeStyle;rounded=0;orthogonalLoop=1;jettySize=auto;html=1;entryX=0.25;entryY=1;entryDx=0;entryDy=0;" edge="1" parent="1" source="g03nTtScG-hAA8EhMata-3" target="4rcX--6uyM_ahGE6yn0v-6">
          <mxGeometry relative="1" as="geometry" />
        </mxCell>
        <mxCell id="4rcX--6uyM_ahGE6yn0v-21" style="edgeStyle=orthogonalEdgeStyle;rounded=0;orthogonalLoop=1;jettySize=auto;html=1;entryX=0.5;entryY=0;entryDx=0;entryDy=0;" edge="1" parent="1" source="4rcX--6uyM_ahGE6yn0v-17" target="4rcX--6uyM_ahGE6yn0v-20">
          <mxGeometry relative="1" as="geometry" />
        </mxCell>
        <mxCell id="4rcX--6uyM_ahGE6yn0v-17" value="&lt;div&gt;&lt;b&gt;Никки&lt;/b&gt;&lt;br&gt;&lt;/div&gt;&lt;div&gt;Мне нужно лететь на Элиду и как можно скорее... А то все мои гвайские штрамусы и панайские гварцепалы стухнут. Я потеряю кучу денег, а потом еще и боксы очищать от лейкой цитозы.&lt;/div&gt;&lt;div&gt;&lt;br&gt;&lt;/div&gt;&lt;div&gt;Или я могу рассчитывать на вашу помощь и финансовую компенсацию?&lt;br&gt;&lt;/div&gt;" style="rounded=0;whiteSpace=wrap;html=1;fillColor=#dae8fc;strokeColor=#6c8ebf;" vertex="1" parent="1">
          <mxGeometry x="-930" y="890" width="420" height="100" as="geometry" />
        </mxCell>
        <mxCell id="4rcX--6uyM_ahGE6yn0v-22" style="edgeStyle=orthogonalEdgeStyle;rounded=0;orthogonalLoop=1;jettySize=auto;html=1;entryX=0.062;entryY=0;entryDx=0;entryDy=0;entryPerimeter=0;fillColor=#dae8fc;strokeColor=#6c8ebf;" edge="1" parent="1" source="4rcX--6uyM_ahGE6yn0v-20" target="g03nTtScG-hAA8EhMata-2">
          <mxGeometry relative="1" as="geometry">
            <Array as="points">
              <mxPoint x="-720" y="1130" />
              <mxPoint x="-490" y="1130" />
              <mxPoint x="-490" y="440" />
              <mxPoint x="213" y="440" />
            </Array>
          </mxGeometry>
        </mxCell>
        <mxCell id="4rcX--6uyM_ahGE6yn0v-20" value="&lt;div&gt;&lt;b&gt;Грустный охранник&lt;/b&gt;&lt;br&gt;&lt;/div&gt;&lt;div&gt;Вернитесь пожалуйста в каюту и закройте дверь. Вы прекрасно понимаете всю сложность положения и знаете порядок при подобных ситуациях.&lt;/div&gt;&lt;div&gt;&lt;br&gt;&lt;/div&gt;&lt;div&gt;Позже попробуйте поговорите с начальником станции, возможно он сможет что-то придумать.&lt;br&gt;&lt;/div&gt;" style="rounded=0;whiteSpace=wrap;html=1;fillColor=#dae8fc;strokeColor=#6c8ebf;" vertex="1" parent="1">
          <mxGeometry x="-930" y="1010" width="420" height="110" as="geometry" />
        </mxCell>
        <mxCell id="4rcX--6uyM_ahGE6yn0v-27" style="edgeStyle=orthogonalEdgeStyle;rounded=0;orthogonalLoop=1;jettySize=auto;html=1;entryX=0.5;entryY=0;entryDx=0;entryDy=0;" edge="1" parent="1" source="4rcX--6uyM_ahGE6yn0v-23" target="4rcX--6uyM_ahGE6yn0v-24">
          <mxGeometry relative="1" as="geometry" />
        </mxCell>
        <mxCell id="4rcX--6uyM_ahGE6yn0v-23" value="&lt;div&gt;&lt;b&gt;Никки&lt;/b&gt;&lt;br&gt;&lt;/div&gt;&lt;div&gt;Караул! Помогите! Дралоскоп заклинило!&lt;/div&gt;" style="rounded=0;whiteSpace=wrap;html=1;fillColor=#dae8fc;strokeColor=#6c8ebf;" vertex="1" parent="1">
          <mxGeometry x="-470" y="645" width="370" height="70" as="geometry" />
        </mxCell>
        <mxCell id="4rcX--6uyM_ahGE6yn0v-28" style="edgeStyle=orthogonalEdgeStyle;rounded=0;orthogonalLoop=1;jettySize=auto;html=1;entryX=0.5;entryY=0;entryDx=0;entryDy=0;" edge="1" parent="1" source="4rcX--6uyM_ahGE6yn0v-24" target="4rcX--6uyM_ahGE6yn0v-25">
          <mxGeometry relative="1" as="geometry" />
        </mxCell>
        <mxCell id="4rcX--6uyM_ahGE6yn0v-24" value="Грустный охранник станции неторопливо заглянул в комнату" style="rounded=0;whiteSpace=wrap;html=1;fillColor=#d5e8d4;strokeColor=#82b366;" vertex="1" parent="1">
          <mxGeometry x="-470" y="730" width="370" height="50" as="geometry" />
        </mxCell>
        <mxCell id="4rcX--6uyM_ahGE6yn0v-30" style="edgeStyle=orthogonalEdgeStyle;rounded=0;orthogonalLoop=1;jettySize=auto;html=1;" edge="1" parent="1" source="4rcX--6uyM_ahGE6yn0v-25" target="4rcX--6uyM_ahGE6yn0v-29">
          <mxGeometry relative="1" as="geometry" />
        </mxCell>
        <mxCell id="4rcX--6uyM_ahGE6yn0v-25" value="&lt;div&gt;&lt;b&gt;Грустный охранник&lt;/b&gt;&lt;br&gt;&lt;/div&gt;&lt;div&gt;Уважаемая Никки! Зачем вы пугаете народ своими истошными криками?&lt;/div&gt;&lt;div&gt;&lt;br&gt;&lt;/div&gt;&lt;div&gt;На станции вы обеспечены всем необходимым&lt;/div&gt;&lt;div&gt;&lt;br&gt;&lt;/div&gt;&lt;div&gt;На время карантина проблем быть не должно.&lt;/div&gt;&lt;div&gt;&lt;br&gt;&lt;/div&gt;&lt;div&gt;Я зайду к Вам через час с ужином!&lt;br&gt;&lt;/div&gt;" style="rounded=0;whiteSpace=wrap;html=1;fillColor=#dae8fc;strokeColor=#6c8ebf;" vertex="1" parent="1">
          <mxGeometry x="-470" y="800" width="370" height="140" as="geometry" />
        </mxCell>
        <mxCell id="4rcX--6uyM_ahGE6yn0v-34" style="edgeStyle=orthogonalEdgeStyle;rounded=0;orthogonalLoop=1;jettySize=auto;html=1;entryX=0.57;entryY=0;entryDx=0;entryDy=0;entryPerimeter=0;fillColor=#e1d5e7;strokeColor=#9673a6;" edge="1" parent="1" source="4rcX--6uyM_ahGE6yn0v-29" target="g03nTtScG-hAA8EhMata-2">
          <mxGeometry relative="1" as="geometry">
            <Array as="points">
              <mxPoint x="-80" y="980" />
              <mxPoint x="-80" y="430" />
              <mxPoint x="401" y="430" />
            </Array>
          </mxGeometry>
        </mxCell>
        <mxCell id="4rcX--6uyM_ahGE6yn0v-29" value="&lt;div&gt;Дверь с грохотом закрылась и Никки снова осталась в запертой каюте ожидать окончания снятия карантина&lt;/div&gt;&lt;font color=&quot;#EA6B66&quot;&gt;&lt;b&gt;help1 = 1&lt;/b&gt;&lt;/font&gt;" style="rounded=0;whiteSpace=wrap;html=1;fillColor=#d5e8d4;strokeColor=#82b366;" vertex="1" parent="1">
          <mxGeometry x="-470" y="960" width="370" height="60" as="geometry" />
        </mxCell>
        <mxCell id="4rcX--6uyM_ahGE6yn0v-37" style="edgeStyle=orthogonalEdgeStyle;rounded=0;orthogonalLoop=1;jettySize=auto;html=1;entryX=0.638;entryY=0.006;entryDx=0;entryDy=0;entryPerimeter=0;fillColor=#ffe6cc;strokeColor=#d79b00;" edge="1" parent="1" source="4rcX--6uyM_ahGE6yn0v-35" target="g03nTtScG-hAA8EhMata-2">
          <mxGeometry relative="1" as="geometry">
            <Array as="points">
              <mxPoint x="860" y="190" />
              <mxPoint x="580" y="190" />
              <mxPoint x="580" y="420" />
              <mxPoint x="426" y="420" />
            </Array>
          </mxGeometry>
        </mxCell>
        <mxCell id="4rcX--6uyM_ahGE6yn0v-35" value="&lt;div&gt;&lt;b&gt;Никка&lt;/b&gt;&lt;/div&gt;&lt;div&gt;У меня грузовой корабль! У него нет разума, чтобы ответить мне...&lt;/div&gt;&lt;div&gt;&lt;br&gt;&lt;/div&gt;&lt;div&gt;Но, судя по диагностической панели заправить его успели&lt;br&gt;&lt;/div&gt;" style="rounded=0;whiteSpace=wrap;html=1;fillColor=#dae8fc;strokeColor=#6c8ebf;" vertex="1" parent="1">
          <mxGeometry x="640" y="90" width="440" height="80" as="geometry" />
        </mxCell>
        <mxCell id="4rcX--6uyM_ahGE6yn0v-36" style="edgeStyle=orthogonalEdgeStyle;rounded=0;orthogonalLoop=1;jettySize=auto;html=1;entryX=0.5;entryY=0;entryDx=0;entryDy=0;" edge="1" parent="1" source="g03nTtScG-hAA8EhMata-23" target="4rcX--6uyM_ahGE6yn0v-35">
          <mxGeometry relative="1" as="geometry" />
        </mxCell>
        <mxCell id="4rcX--6uyM_ahGE6yn0v-42" style="edgeStyle=orthogonalEdgeStyle;rounded=0;orthogonalLoop=1;jettySize=auto;html=1;entryX=0.5;entryY=0;entryDx=0;entryDy=0;" edge="1" parent="1" source="4rcX--6uyM_ahGE6yn0v-38" target="4rcX--6uyM_ahGE6yn0v-40">
          <mxGeometry relative="1" as="geometry" />
        </mxCell>
        <mxCell id="4rcX--6uyM_ahGE6yn0v-38" value="Никки достала массивную рацию из своего чемодана" style="rounded=0;whiteSpace=wrap;html=1;fillColor=#d5e8d4;strokeColor=#82b366;" vertex="1" parent="1">
          <mxGeometry x="640" y="300" width="440" height="40" as="geometry" />
        </mxCell>
        <mxCell id="4rcX--6uyM_ahGE6yn0v-39" style="edgeStyle=orthogonalEdgeStyle;rounded=0;orthogonalLoop=1;jettySize=auto;html=1;entryX=0.5;entryY=0;entryDx=0;entryDy=0;" edge="1" parent="1" source="g03nTtScG-hAA8EhMata-24" target="4rcX--6uyM_ahGE6yn0v-38">
          <mxGeometry relative="1" as="geometry">
            <Array as="points">
              <mxPoint x="610" y="603" />
              <mxPoint x="610" y="280" />
              <mxPoint x="860" y="280" />
            </Array>
          </mxGeometry>
        </mxCell>
        <mxCell id="4rcX--6uyM_ahGE6yn0v-43" style="edgeStyle=orthogonalEdgeStyle;rounded=0;orthogonalLoop=1;jettySize=auto;html=1;fillColor=#d5e8d4;" edge="1" parent="1" source="4rcX--6uyM_ahGE6yn0v-40" target="4rcX--6uyM_ahGE6yn0v-41">
          <mxGeometry relative="1" as="geometry" />
        </mxCell>
        <mxCell id="4rcX--6uyM_ahGE6yn0v-40" value="&lt;div&gt;&lt;b&gt;Никки&lt;/b&gt;&lt;/div&gt;&lt;div&gt;Скоротечный Хвой 1701 для Элида 3, &quot;Кварцевые стробаты&quot;, красной морде...&lt;br&gt;&lt;/div&gt;" style="rounded=0;whiteSpace=wrap;html=1;fillColor=#dae8fc;strokeColor=#6c8ebf;" vertex="1" parent="1">
          <mxGeometry x="640" y="360" width="440" height="60" as="geometry" />
        </mxCell>
        <mxCell id="4rcX--6uyM_ahGE6yn0v-45" style="edgeStyle=orthogonalEdgeStyle;rounded=0;orthogonalLoop=1;jettySize=auto;html=1;strokeColor=#000000;" edge="1" parent="1" source="4rcX--6uyM_ahGE6yn0v-41" target="4rcX--6uyM_ahGE6yn0v-44">
          <mxGeometry relative="1" as="geometry" />
        </mxCell>
        <mxCell id="4rcX--6uyM_ahGE6yn0v-41" value="&lt;div&gt;&lt;b&gt;Никки&lt;/b&gt;&lt;/div&gt;&lt;div&gt;Скоротечный Хвой 1701 для Элида 3, &quot;Кварцевые стробаты&quot;, красной морде...&lt;br&gt;&lt;/div&gt;" style="rounded=0;whiteSpace=wrap;html=1;fillColor=#dae8fc;strokeColor=#6c8ebf;" vertex="1" parent="1">
          <mxGeometry x="640" y="440" width="440" height="60" as="geometry" />
        </mxCell>
        <mxCell id="4rcX--6uyM_ahGE6yn0v-46" style="edgeStyle=orthogonalEdgeStyle;rounded=0;orthogonalLoop=1;jettySize=auto;html=1;entryX=0.703;entryY=0;entryDx=0;entryDy=0;entryPerimeter=0;strokeColor=#b85450;fillColor=#f8cecc;" edge="1" parent="1" source="4rcX--6uyM_ahGE6yn0v-44" target="g03nTtScG-hAA8EhMata-2">
          <mxGeometry relative="1" as="geometry">
            <Array as="points">
              <mxPoint x="860" y="580" />
              <mxPoint x="620" y="580" />
              <mxPoint x="620" y="430" />
              <mxPoint x="450" y="430" />
            </Array>
          </mxGeometry>
        </mxCell>
        <mxCell id="4rcX--6uyM_ahGE6yn0v-44" value="Связи нет. Возможно Никки находится очень далеко от звездной системы Элида" style="rounded=0;whiteSpace=wrap;html=1;fillColor=#d5e8d4;strokeColor=#82b366;" vertex="1" parent="1">
          <mxGeometry x="640" y="520" width="440" height="50" as="geometry" />
        </mxCell>
        <mxCell id="4rcX--6uyM_ahGE6yn0v-47" value="Переменные" style="swimlane;" vertex="1" parent="1">
          <mxGeometry x="-920" y="70" width="410" height="350" as="geometry" />
        </mxCell>
        <mxCell id="4rcX--6uyM_ahGE6yn0v-48" value="&lt;div&gt;&lt;font color=&quot;#EA6B66&quot;&gt;&lt;b&gt;help1 = 0&lt;/b&gt;&lt;/font&gt;&lt;/div&gt;&lt;div&gt;Количество просьб о помощи&lt;br&gt;&lt;/div&gt;&lt;div&gt;=2 - охранник уходит и можно выйти&lt;/div&gt;&lt;div&gt;&amp;gt;2 - охранник больше не приходит&lt;br&gt;&lt;/div&gt;" style="text;html=1;strokeColor=none;fillColor=none;align=center;verticalAlign=middle;whiteSpace=wrap;rounded=0;" vertex="1" parent="4rcX--6uyM_ahGE6yn0v-47">
          <mxGeometry x="10" y="30" width="390" height="310" as="geometry" />
        </mxCell>
        <mxCell id="4rcX--6uyM_ahGE6yn0v-55" value="help = 0" style="rhombus;whiteSpace=wrap;html=1;fillColor=#f8cecc;strokeColor=#b85450;" vertex="1" parent="1">
          <mxGeometry x="-240" y="580" width="140" height="40" as="geometry" />
        </mxCell>
        <mxCell id="4rcX--6uyM_ahGE6yn0v-56" value="help = 1" style="rhombus;whiteSpace=wrap;html=1;fillColor=#f8cecc;strokeColor=#b85450;" vertex="1" parent="1">
          <mxGeometry x="70" y="645" width="140" height="40" as="geometry" />
        </mxCell>
        <mxCell id="4rcX--6uyM_ahGE6yn0v-57" value="help &amp;gt;= 2" style="rhombus;whiteSpace=wrap;html=1;fillColor=#f8cecc;strokeColor=#b85450;" vertex="1" parent="1">
          <mxGeometry x="510" y="710" width="140" height="40" as="geometry" />
        </mxCell>
        <mxCell id="4rcX--6uyM_ahGE6yn0v-58" style="edgeStyle=orthogonalEdgeStyle;rounded=0;orthogonalLoop=1;jettySize=auto;html=1;entryX=0.5;entryY=0;entryDx=0;entryDy=0;strokeColor=#000000;" edge="1" parent="1" source="g03nTtScG-hAA8EhMata-5" target="4rcX--6uyM_ahGE6yn0v-55">
          <mxGeometry relative="1" as="geometry" />
        </mxCell>
        <mxCell id="4rcX--6uyM_ahGE6yn0v-60" value="" style="endArrow=classic;html=1;strokeColor=#000000;exitX=0;exitY=0.5;exitDx=0;exitDy=0;entryX=0.5;entryY=0;entryDx=0;entryDy=0;" edge="1" parent="1" source="4rcX--6uyM_ahGE6yn0v-55" target="4rcX--6uyM_ahGE6yn0v-23">
          <mxGeometry relative="1" as="geometry">
            <mxPoint x="20" y="760" as="sourcePoint" />
            <mxPoint x="120" y="760" as="targetPoint" />
            <Array as="points">
              <mxPoint x="-285" y="600" />
            </Array>
          </mxGeometry>
        </mxCell>
        <mxCell id="4rcX--6uyM_ahGE6yn0v-61" value="Да" style="edgeLabel;resizable=0;html=1;align=center;verticalAlign=middle;" connectable="0" vertex="1" parent="4rcX--6uyM_ahGE6yn0v-60">
          <mxGeometry relative="1" as="geometry" />
        </mxCell>
        <mxCell id="4rcX--6uyM_ahGE6yn0v-62" value="" style="endArrow=classic;html=1;strokeColor=#000000;exitX=1;exitY=0.5;exitDx=0;exitDy=0;entryX=0.5;entryY=0;entryDx=0;entryDy=0;" edge="1" parent="1" source="4rcX--6uyM_ahGE6yn0v-55" target="4rcX--6uyM_ahGE6yn0v-56">
          <mxGeometry relative="1" as="geometry">
            <mxPoint x="20" y="730" as="sourcePoint" />
            <mxPoint x="70" y="600" as="targetPoint" />
            <Array as="points">
              <mxPoint x="140" y="600" />
            </Array>
          </mxGeometry>
        </mxCell>
        <mxCell id="4rcX--6uyM_ahGE6yn0v-63" value="Нет" style="edgeLabel;resizable=0;html=1;align=center;verticalAlign=middle;" connectable="0" vertex="1" parent="4rcX--6uyM_ahGE6yn0v-62">
          <mxGeometry relative="1" as="geometry" />
        </mxCell>
        <mxCell id="4rcX--6uyM_ahGE6yn0v-64" value="" style="endArrow=classic;html=1;strokeColor=#000000;exitX=1;exitY=0.5;exitDx=0;exitDy=0;entryX=0.5;entryY=0;entryDx=0;entryDy=0;" edge="1" parent="1" source="4rcX--6uyM_ahGE6yn0v-56" target="4rcX--6uyM_ahGE6yn0v-57">
          <mxGeometry relative="1" as="geometry">
            <mxPoint x="-90" y="610" as="sourcePoint" />
            <mxPoint x="150" y="655" as="targetPoint" />
            <Array as="points">
              <mxPoint x="580" y="670" />
            </Array>
          </mxGeometry>
        </mxCell>
        <mxCell id="4rcX--6uyM_ahGE6yn0v-65" value="Нет" style="edgeLabel;resizable=0;html=1;align=center;verticalAlign=middle;" connectable="0" vertex="1" parent="4rcX--6uyM_ahGE6yn0v-64">
          <mxGeometry relative="1" as="geometry" />
        </mxCell>
        <mxCell id="4rcX--6uyM_ahGE6yn0v-71" style="edgeStyle=orthogonalEdgeStyle;rounded=0;orthogonalLoop=1;jettySize=auto;html=1;strokeColor=#000000;" edge="1" parent="1" source="4rcX--6uyM_ahGE6yn0v-66" target="4rcX--6uyM_ahGE6yn0v-69">
          <mxGeometry relative="1" as="geometry" />
        </mxCell>
        <mxCell id="4rcX--6uyM_ahGE6yn0v-66" value="&lt;div&gt;&lt;b&gt;Никки&lt;/b&gt;&lt;br&gt;&lt;/div&gt;&lt;div&gt;Караул! Помогите! Расход кислорода в отсеке бесполезного груза удвоился в три раза!&lt;/div&gt;" style="rounded=0;whiteSpace=wrap;html=1;fillColor=#dae8fc;strokeColor=#6c8ebf;" vertex="1" parent="1">
          <mxGeometry x="-52.5" y="720" width="385" height="70" as="geometry" />
        </mxCell>
        <mxCell id="4rcX--6uyM_ahGE6yn0v-73" style="edgeStyle=orthogonalEdgeStyle;rounded=0;orthogonalLoop=1;jettySize=auto;html=1;strokeColor=#000000;" edge="1" parent="1" source="4rcX--6uyM_ahGE6yn0v-69" target="4rcX--6uyM_ahGE6yn0v-72">
          <mxGeometry relative="1" as="geometry" />
        </mxCell>
        <mxCell id="4rcX--6uyM_ahGE6yn0v-69" value="&lt;div&gt;На этот раз грустный охранник просто влетел в кубрик Никки&lt;/div&gt;&lt;div&gt;&lt;br&gt;&lt;/div&gt;&lt;div&gt;Как раз на прошлой неделе по его ошибке этот отсек чуть не отстыковало от станции&lt;br&gt;&lt;/div&gt;" style="rounded=0;whiteSpace=wrap;html=1;fillColor=#d5e8d4;strokeColor=#82b366;" vertex="1" parent="1">
          <mxGeometry x="-52.5" y="820" width="382.5" height="80" as="geometry" />
        </mxCell>
        <mxCell id="4rcX--6uyM_ahGE6yn0v-75" style="edgeStyle=orthogonalEdgeStyle;rounded=0;orthogonalLoop=1;jettySize=auto;html=1;entryX=0.5;entryY=0;entryDx=0;entryDy=0;strokeColor=#000000;" edge="1" parent="1" source="4rcX--6uyM_ahGE6yn0v-72" target="4rcX--6uyM_ahGE6yn0v-74">
          <mxGeometry relative="1" as="geometry" />
        </mxCell>
        <mxCell id="4rcX--6uyM_ahGE6yn0v-72" value="&lt;div&gt;&lt;b&gt;Грустный охранник&lt;/b&gt;&lt;br&gt;&lt;/div&gt;&lt;div&gt;Вы только не переживайте!&lt;/div&gt;&lt;div&gt;&lt;br&gt;&lt;/div&gt;&lt;div&gt;Я сейчас быстро сбегаю и все проверю.&lt;/div&gt;&lt;div&gt;&lt;br&gt;&lt;/div&gt;&lt;div&gt;Пока сядьте и дышите ровнее, все будет хорошо!&lt;br&gt;&lt;/div&gt;" style="rounded=0;whiteSpace=wrap;html=1;fillColor=#dae8fc;strokeColor=#6c8ebf;" vertex="1" parent="1">
          <mxGeometry x="-52.5" y="920" width="382.5" height="100" as="geometry" />
        </mxCell>
        <mxCell id="4rcX--6uyM_ahGE6yn0v-76" style="edgeStyle=orthogonalEdgeStyle;rounded=0;orthogonalLoop=1;jettySize=auto;html=1;entryX=0.13;entryY=0.006;entryDx=0;entryDy=0;strokeColor=#d6b656;fillColor=#fff2cc;entryPerimeter=0;" edge="1" parent="1" source="4rcX--6uyM_ahGE6yn0v-74" target="g03nTtScG-hAA8EhMata-2">
          <mxGeometry relative="1" as="geometry">
            <Array as="points">
              <mxPoint x="-70" y="1070" />
              <mxPoint x="-70" y="420" />
              <mxPoint x="238" y="420" />
            </Array>
          </mxGeometry>
        </mxCell>
        <mxCell id="4rcX--6uyM_ahGE6yn0v-74" value="&lt;div&gt;Грустный охранник пулей выпрыгнул из каюты и куда-то помчался в темноту душного и длинного&lt;br&gt;&lt;/div&gt;&lt;font color=&quot;#EA6B66&quot;&gt;&lt;b&gt;help1 = 2&lt;br&gt;&lt;/b&gt;&lt;/font&gt;" style="rounded=0;whiteSpace=wrap;html=1;fillColor=#d5e8d4;strokeColor=#82b366;" vertex="1" parent="1">
          <mxGeometry x="-52.5" y="1040" width="382.5" height="60" as="geometry" />
        </mxCell>
        <mxCell id="4rcX--6uyM_ahGE6yn0v-77" value="" style="endArrow=classic;html=1;strokeColor=#000000;entryX=0.5;entryY=0;entryDx=0;entryDy=0;exitX=0;exitY=0.5;exitDx=0;exitDy=0;" edge="1" parent="1" source="4rcX--6uyM_ahGE6yn0v-56" target="4rcX--6uyM_ahGE6yn0v-66">
          <mxGeometry relative="1" as="geometry">
            <mxPoint x="60" y="680" as="sourcePoint" />
            <mxPoint x="500" y="810" as="targetPoint" />
            <Array as="points">
              <mxPoint x="-10" y="665" />
              <mxPoint x="-10" y="700" />
              <mxPoint x="140" y="700" />
            </Array>
          </mxGeometry>
        </mxCell>
        <mxCell id="4rcX--6uyM_ahGE6yn0v-78" value="Да" style="edgeLabel;resizable=0;html=1;align=center;verticalAlign=middle;" connectable="0" vertex="1" parent="4rcX--6uyM_ahGE6yn0v-77">
          <mxGeometry relative="1" as="geometry" />
        </mxCell>
        <mxCell id="4rcX--6uyM_ahGE6yn0v-83" style="edgeStyle=orthogonalEdgeStyle;rounded=0;orthogonalLoop=1;jettySize=auto;html=1;entryX=0.5;entryY=0;entryDx=0;entryDy=0;strokeColor=#000000;" edge="1" parent="1" source="4rcX--6uyM_ahGE6yn0v-79" target="4rcX--6uyM_ahGE6yn0v-80">
          <mxGeometry relative="1" as="geometry" />
        </mxCell>
        <mxCell id="4rcX--6uyM_ahGE6yn0v-79" value="&lt;div&gt;&lt;b&gt;Никки&lt;/b&gt;&lt;br&gt;&lt;/div&gt;&lt;div&gt;Караул! Помогите! К днищу вашей станции приварено отверстие!&lt;/div&gt;" style="rounded=0;whiteSpace=wrap;html=1;fillColor=#dae8fc;strokeColor=#6c8ebf;" vertex="1" parent="1">
          <mxGeometry x="387.5" y="780" width="385" height="50" as="geometry" />
        </mxCell>
        <mxCell id="4rcX--6uyM_ahGE6yn0v-84" style="edgeStyle=orthogonalEdgeStyle;rounded=0;orthogonalLoop=1;jettySize=auto;html=1;entryX=0.8;entryY=0;entryDx=0;entryDy=0;entryPerimeter=0;strokeColor=#6c8ebf;fillColor=#dae8fc;" edge="1" parent="1" source="4rcX--6uyM_ahGE6yn0v-80" target="g03nTtScG-hAA8EhMata-2">
          <mxGeometry relative="1" as="geometry">
            <Array as="points">
              <mxPoint x="579" y="950" />
              <mxPoint x="790" y="950" />
              <mxPoint x="790" y="760" />
              <mxPoint x="660" y="760" />
              <mxPoint x="660" y="670" />
              <mxPoint x="590" y="670" />
              <mxPoint x="590" y="440" />
              <mxPoint x="486" y="440" />
            </Array>
          </mxGeometry>
        </mxCell>
        <mxCell id="4rcX--6uyM_ahGE6yn0v-80" value="&lt;div&gt;Но только эхо в этот раз отозвалось...&lt;/div&gt;&lt;div&gt;&lt;br&gt;&lt;/div&gt;&lt;div&gt;Охранник убежал и пока не успел вернуться&lt;br&gt;&lt;/div&gt;" style="rounded=0;whiteSpace=wrap;html=1;fillColor=#d5e8d4;strokeColor=#82b366;" vertex="1" parent="1">
          <mxGeometry x="387.5" y="860" width="382.5" height="80" as="geometry" />
        </mxCell>
        <mxCell id="4rcX--6uyM_ahGE6yn0v-81" value="" style="endArrow=classic;html=1;strokeColor=#000000;entryX=0.5;entryY=0;entryDx=0;entryDy=0;exitX=0;exitY=0.5;exitDx=0;exitDy=0;" edge="1" parent="1" source="4rcX--6uyM_ahGE6yn0v-57" target="4rcX--6uyM_ahGE6yn0v-79">
          <mxGeometry relative="1" as="geometry">
            <mxPoint x="490" y="730" as="sourcePoint" />
            <mxPoint x="530" y="1030" as="targetPoint" />
            <Array as="points">
              <mxPoint x="450" y="730" />
              <mxPoint x="450" y="760" />
              <mxPoint x="580" y="760" />
            </Array>
          </mxGeometry>
        </mxCell>
        <mxCell id="4rcX--6uyM_ahGE6yn0v-82" value="Да" style="edgeLabel;resizable=0;html=1;align=center;verticalAlign=middle;" connectable="0" vertex="1" parent="4rcX--6uyM_ahGE6yn0v-81">
          <mxGeometry relative="1" as="geometry" />
        </mxCell>
        <mxCell id="4rcX--6uyM_ahGE6yn0v-85" value="help &amp;gt;= 2" style="rhombus;whiteSpace=wrap;html=1;fillColor=#f8cecc;strokeColor=#b85450;" vertex="1" parent="1">
          <mxGeometry x="-930" y="576" width="140" height="40" as="geometry" />
        </mxCell>
        <mxCell id="4rcX--6uyM_ahGE6yn0v-86" style="edgeStyle=orthogonalEdgeStyle;rounded=0;orthogonalLoop=1;jettySize=auto;html=1;entryX=0.5;entryY=0;entryDx=0;entryDy=0;strokeColor=#000000;" edge="1" parent="1" source="g03nTtScG-hAA8EhMata-4" target="4rcX--6uyM_ahGE6yn0v-85">
          <mxGeometry relative="1" as="geometry" />
        </mxCell>
        <mxCell id="4rcX--6uyM_ahGE6yn0v-87" value="" style="endArrow=classic;html=1;strokeColor=#000000;exitX=1;exitY=0.5;exitDx=0;exitDy=0;" edge="1" parent="1" source="4rcX--6uyM_ahGE6yn0v-85">
          <mxGeometry relative="1" as="geometry">
            <mxPoint x="-720" y="630" as="sourcePoint" />
            <mxPoint x="-720" y="700" as="targetPoint" />
            <Array as="points">
              <mxPoint x="-720" y="596" />
            </Array>
          </mxGeometry>
        </mxCell>
        <mxCell id="4rcX--6uyM_ahGE6yn0v-88" value="Нет" style="edgeLabel;resizable=0;html=1;align=center;verticalAlign=middle;" connectable="0" vertex="1" parent="4rcX--6uyM_ahGE6yn0v-87">
          <mxGeometry relative="1" as="geometry" />
        </mxCell>
        <mxCell id="4rcX--6uyM_ahGE6yn0v-89" value="&lt;div&gt;Никка тихонько приоткрыла дверь, а там...&lt;/div&gt;&lt;div&gt;&lt;br&gt;&lt;/div&gt;&lt;div&gt;Никого нет&lt;/div&gt;&lt;div&gt;&lt;br&gt;&lt;/div&gt;&lt;div&gt;Охранник пока не вернулся&lt;br&gt;&lt;/div&gt;" style="rounded=0;whiteSpace=wrap;html=1;fillColor=#d5e8d4;strokeColor=#82b366;" vertex="1" parent="1">
          <mxGeometry x="-490" y="1220" width="420" height="90" as="geometry" />
        </mxCell>
        <mxCell id="4rcX--6uyM_ahGE6yn0v-91" value="" style="endArrow=classic;html=1;strokeColor=#000000;exitX=0;exitY=0.5;exitDx=0;exitDy=0;entryX=0.5;entryY=0;entryDx=0;entryDy=0;" edge="1" parent="1" source="4rcX--6uyM_ahGE6yn0v-85" target="4rcX--6uyM_ahGE6yn0v-89">
          <mxGeometry relative="1" as="geometry">
            <mxPoint x="-1240" y="840" as="sourcePoint" />
            <mxPoint x="-650" y="1190" as="targetPoint" />
            <Array as="points">
              <mxPoint x="-1000" y="596" />
              <mxPoint x="-1000" y="1190" />
              <mxPoint x="-280" y="1190" />
            </Array>
          </mxGeometry>
        </mxCell>
        <mxCell id="4rcX--6uyM_ahGE6yn0v-92" value="Да" style="edgeLabel;resizable=0;html=1;align=center;verticalAlign=middle;" connectable="0" vertex="1" parent="4rcX--6uyM_ahGE6yn0v-91">
          <mxGeometry relative="1" as="geometry" />
        </mxCell>
        <mxCell id="4rcX--6uyM_ahGE6yn0v-93" value="Никка оказалась в тесном мрачном и бесконечно тёмном коридоре" style="rounded=0;whiteSpace=wrap;html=1;fillColor=#d5e8d4;strokeColor=#82b366;" vertex="1" parent="1">
          <mxGeometry x="-490" y="1330" width="420" height="40" as="geometry" />
        </mxCell>
      </root>
    </mxGraphModel>
  </diagram>
</mxfile>
